<svg width="40" height="40" viewBox="0 0 40 40" fill="none" xmlns="http://www.w3.org/2000/svg">
<g clip-path="url(#clip0_14188_21436)">
<rect width="40" height="40" rx="20" fill="#EFEFF0"/>
<path fill-rule="evenodd" clip-rule="evenodd" d="M29.091 16.1491C29.091 17.1993 28.2946 18.0634 27.2728 18.1707V23.9718C27.8624 24.295 28.3269 24.8329 28.5497 25.5012L28.6455 25.7887C29.0379 26.966 28.1616 28.1819 26.9206 28.1819H13.0796C11.8386 28.1819 10.9622 26.966 11.3547 25.7887L11.4505 25.5012C11.6733 24.8329 12.1378 24.295 12.7274 23.9718V18.1707C11.7056 18.0634 10.9092 17.1993 10.9092 16.1491C10.9092 15.3791 11.3442 14.6752 12.0329 14.3309L18.7804 10.9571C19.5482 10.5732 20.452 10.5732 21.2198 10.9571L27.9673 14.3309C28.656 14.6752 29.091 15.3791 29.091 16.1491ZM23.6365 18.1819H25.4546V23.6364H23.6365V18.1819ZM16.3637 23.6364H14.5455V18.1819H16.3637V23.6364ZM18.1819 23.6364V18.1819H21.8183V23.6364H18.1819Z" fill="#A1A1AA"/>
</g>
<defs>
<clipPath id="clip0_14188_21436">
<rect width="40" height="40" fill="white"/>
</clipPath>
</defs>
</svg>