<svg width="20" height="20" viewBox="0 0 20 20" fill="none" xmlns="http://www.w3.org/2000/svg">
<path d="M13.334 13.3335C14.109 13.3335 14.4965 13.3335 14.8144 13.2483C15.6771 13.0172 16.351 12.3432 16.5822 11.4806C16.6673 11.1627 16.6673 10.7752 16.6673 10.0002V7.3335C16.6673 5.93336 16.6673 5.2333 16.3948 4.69852C16.1552 4.22811 15.7727 3.84566 15.3023 3.60598C14.7675 3.3335 14.0675 3.3335 12.6673 3.3335H10.0007C9.22565 3.3335 8.83815 3.3335 8.52023 3.41868C7.65754 3.64985 6.98367 4.32372 6.7525 5.18645C6.66732 5.50436 6.66732 5.89185 6.66732 6.66683M13.334 10.6668V12.6668C13.334 14.067 13.334 14.767 13.0615 15.3018C12.8218 15.7722 12.4394 16.1547 11.969 16.3943C11.4342 16.6668 10.7342 16.6668 9.33398 16.6668H7.33398C5.93385 16.6668 5.23378 16.6668 4.69901 16.3943C4.2286 16.1547 3.84615 15.7722 3.60647 15.3018C3.33398 14.767 3.33398 14.067 3.33398 12.6668V10.6668C3.33398 9.26666 3.33398 8.56666 3.60647 8.03185C3.84615 7.56145 4.2286 7.179 4.69901 6.93931C5.23378 6.66683 5.93385 6.66683 7.33398 6.66683H9.33398C10.7342 6.66683 11.4342 6.66683 11.969 6.93931C12.4394 7.179 12.8218 7.56145 13.0615 8.03185C13.334 8.56666 13.334 9.26666 13.334 10.6668Z" stroke="#A1A1AA" stroke-width="1.66667" stroke-linecap="round"/>
</svg>
