<svg width="251" height="12" viewBox="0 0 251 12" fill="none" xmlns="http://www.w3.org/2000/svg">
<g clip-path="url(#clip0_14204_27543)">
<path d="M8.76088 11.8167L5.59538 7.39368L2.4667 11.8167H0L4.33135 5.87482L0.236781 0.171875H2.66378L5.64086 4.31554L8.58763 0.171875H10.9331L6.85653 5.79758L11.237 11.8182L8.76088 11.8167Z" fill="#CDA55D"/>
<path d="M39.7874 1.99966H35.9238V0.17688H45.8087V1.99966H41.9502V11.8174H39.7845L39.7874 1.99966Z" fill="#CDA55D"/>
<path d="M83.11 11.8167V4.09245L79.284 10.4834H78.3181L74.4921 4.19568V11.8167H72.4238V0.17041H74.2098L78.8299 7.89466L83.3778 0.17041H85.158V11.8167H83.11Z" fill="#CDA55D"/>
<path d="M142.83 0.17041H144.996V11.8167H142.83V0.17041Z" fill="#CDA55D"/>
<path d="M183.462 0.17041V11.8167H181.682L175.257 3.91847V11.8167H173.109V0.17041H174.89L181.314 8.06863V0.17041H183.462Z" fill="#CDA55D"/>
<path d="M213.766 11.2096C212.84 10.7165 212.068 9.97643 211.536 9.07135C211.005 8.13285 210.726 7.07276 210.726 5.99429C210.726 4.91582 211.005 3.85573 211.536 2.91722C212.075 2.01432 212.85 1.27517 213.778 0.778982C214.755 0.25432 215.85 -0.0134524 216.959 0.000783521C217.856 -0.00886003 218.746 0.160475 219.577 0.498888C220.345 0.821167 221.028 1.31826 221.57 1.95061L220.172 3.26301C219.784 2.82205 219.305 2.47045 218.768 2.23242C218.231 1.99439 217.649 1.87559 217.062 1.8842C216.312 1.87011 215.571 2.05015 214.911 2.40685C214.29 2.74241 213.778 3.24832 213.435 3.86507C213.078 4.51718 212.892 5.24834 212.892 5.9914C212.892 6.73447 213.078 7.46563 213.435 8.11774C213.778 8.73449 214.29 9.2404 214.911 9.57596C215.57 9.93442 216.311 10.1164 217.062 10.1044C217.65 10.1136 218.233 9.99448 218.77 9.75522C219.307 9.51596 219.786 9.16235 220.172 8.71907L221.57 10.0495C221.026 10.6849 220.339 11.1824 219.565 11.5012C218.734 11.8392 217.844 12.0085 216.947 11.9993C215.836 12.0102 214.74 11.7384 213.763 11.2096H213.766Z" fill="#CDA55D"/>
<path d="M248.346 11.5438C248.117 11.3199 247.974 11.0238 247.94 10.7061C247.907 10.3883 247.984 10.0687 248.16 9.80178C248.335 9.53486 248.598 9.33725 248.904 9.24273C249.209 9.14821 249.537 9.16265 249.833 9.28357C250.129 9.40449 250.374 9.62439 250.525 9.90568C250.677 10.187 250.726 10.5122 250.664 10.8257C250.603 11.1393 250.434 11.4217 250.187 11.6247C249.941 11.8277 249.631 11.9387 249.311 11.9387C249.132 11.9417 248.954 11.9082 248.788 11.8403C248.622 11.7725 248.471 11.6716 248.346 11.5438Z" fill="#CDA55D"/>
</g>
<defs>
<clipPath id="clip0_14204_27543">
<rect width="250.691" height="12" fill="white"/>
</clipPath>
</defs>
</svg>
