<svg width="28" height="28" viewBox="0 0 28 28" fill="none" xmlns="http://www.w3.org/2000/svg">
<path d="M23.3327 21.0002V11.559C23.3327 10.8861 23.0422 10.246 22.5359 9.80294L15.5359 3.67794C14.6561 2.90818 13.3426 2.90818 12.4628 3.67794L5.46284 9.80294C4.95647 10.246 4.66602 10.8861 4.66602 11.559V21.0002C4.66602 22.2888 5.71068 23.3335 6.99935 23.3335H10.4993C11.1437 23.3335 11.666 22.8112 11.666 22.1668V18.6668C11.666 17.3782 12.7107 16.3335 13.9993 16.3335C15.288 16.3335 16.3327 17.3782 16.3327 18.6668V22.1668C16.3327 22.8112 16.855 23.3335 17.4993 23.3335H20.9993C22.288 23.3335 23.3327 22.2888 23.3327 21.0002Z" stroke="#A1A1AA" stroke-width="2" stroke-linejoin="round"/>
</svg>
