<svg width="28" height="28" viewBox="0 0 28 28" fill="none" xmlns="http://www.w3.org/2000/svg">
<circle cx="21" cy="16.3335" r="0.835" fill="#A1A1AA" stroke="#A1A1AA" stroke-width="0.0800002" stroke-linecap="round" stroke-linejoin="round"/>
<path d="M15.1662 14.9504C14.7876 14.9008 14.3984 14.8752 13.9995 14.8752C9.97703 14.8752 6.94141 17.478 5.75225 21.1332C5.32867 22.4352 6.42739 23.6252 7.79654 23.6252H16.3328M18.3745 7.5835C18.3745 9.99974 16.4158 11.9585 13.9995 11.9585C11.5833 11.9585 9.62451 9.99974 9.62451 7.5835C9.62451 5.16725 11.5833 3.2085 13.9995 3.2085C16.4158 3.2085 18.3745 5.16725 18.3745 7.5835ZM18.3745 16.3335C18.3745 14.8837 19.5498 13.7085 20.9995 13.7085C22.4493 13.7085 23.6245 14.8837 23.6245 16.3335C23.6245 17.2436 23.1613 18.0456 22.4578 18.5165V19.8335L21.8745 20.925L22.4578 22.1292V23.3335L20.9995 24.5002L19.5412 23.3335V18.5165C18.8377 18.0456 18.3745 17.2436 18.3745 16.3335Z" stroke="#A1A1AA" stroke-width="2" stroke-linecap="round" stroke-linejoin="round"/>
</svg>
