<svg width="28" height="28" viewBox="0 0 28 28" fill="none" xmlns="http://www.w3.org/2000/svg">
<path fill-rule="evenodd" clip-rule="evenodd" d="M5.54232 2.3335C3.7704 2.3335 2.33398 3.76992 2.33398 5.54183V17.7918C2.33398 19.5637 3.7704 21.0002 5.54232 21.0002H7.00065V22.4585C7.00065 24.2304 8.43707 25.6668 10.209 25.6668H22.459C24.2309 25.6668 25.6673 24.2304 25.6673 22.4585V10.2085C25.6673 8.43658 24.2309 7.00016 22.459 7.00016H21.0007V5.54183C21.0007 3.76992 19.5642 2.3335 17.7923 2.3335H5.54232ZM10.209 7.00016H19.2507V5.54183C19.2507 4.73641 18.5977 4.0835 17.7923 4.0835H5.54232C4.7369 4.0835 4.08398 4.73641 4.08398 5.54183V17.7918C4.08398 18.5972 4.7369 19.2502 5.54232 19.2502H7.00065V10.2085C7.00065 8.43658 8.43707 7.00016 10.209 7.00016ZM16.334 19.2502C13.9242 19.2502 11.8332 20.8387 10.7917 23.1651C10.6293 23.5277 10.9098 23.9168 11.3071 23.9168H21.3609C21.7582 23.9168 22.0386 23.5277 21.8763 23.1651C20.8348 20.8387 18.7438 19.2502 16.334 19.2502ZM16.334 17.5002C17.9448 17.5002 19.2507 16.1943 19.2507 14.5835C19.2507 12.9727 17.9448 11.6668 16.334 11.6668C14.7232 11.6668 13.4173 12.9727 13.4173 14.5835C13.4173 16.1943 14.7232 17.5002 16.334 17.5002Z" fill="#F8C332"/>
</svg>
