<svg width="28" height="28" viewBox="0 0 28 28" fill="none" xmlns="http://www.w3.org/2000/svg">
<path d="M12.541 24.7918H7.87435C6.58568 24.7918 5.54102 23.7472 5.54102 22.4585V5.54183C5.54102 4.25316 6.58568 3.2085 7.87435 3.2085H20.1243C21.413 3.2085 22.4577 4.25316 22.4577 5.54183V12.5418M22.4577 19.5418H17.2077M22.4577 19.5418C23.102 19.5418 23.6244 20.0642 23.6244 20.7085V23.6252C23.6244 24.2695 23.102 24.7918 22.4577 24.7918H17.2077C16.5634 24.7918 16.041 24.2695 16.041 23.6252V20.7085C16.041 20.0642 16.5634 19.5418 17.2077 19.5418M22.4577 19.5418V18.6668C22.4577 17.2171 21.2824 16.0418 19.8327 16.0418C18.3829 16.0418 17.2077 17.2171 17.2077 18.6668V19.5418M10.2077 7.87516H17.791M10.2077 12.5418H14.291" stroke="#A1A1AA" stroke-width="2" stroke-linecap="round" stroke-linejoin="round"/>
</svg>
