<svg width="28" height="28" viewBox="0 0 28 28" fill="none" xmlns="http://www.w3.org/2000/svg">
<path d="M11.0833 18.6668H16.9167M16.9167 12.2502C16.9167 13.861 15.6108 15.1668 14 15.1668C12.3892 15.1668 11.0833 13.861 11.0833 12.2502C11.0833 10.6393 12.3892 9.3335 14 9.3335C15.6108 9.3335 16.9167 10.6393 16.9167 12.2502ZM7.58333 23.9168H20.4167C21.7053 23.9168 22.75 22.8722 22.75 21.5835V6.41683C22.75 5.12817 21.7053 4.0835 20.4167 4.0835H7.58333C6.29467 4.0835 5.25 5.12817 5.25 6.41683V21.5835C5.25 22.8722 6.29467 23.9168 7.58333 23.9168Z" stroke="#A1A1AA" stroke-width="2" stroke-linecap="round" stroke-linejoin="round"/>
</svg>
