<svg width="28" height="28" viewBox="0 0 28 28" fill="none" xmlns="http://www.w3.org/2000/svg">
<path d="M22.1667 10.4998V19.8331M17.5 19.8331V10.4998M5.83333 10.4998V19.8331M10.5 19.8331V10.4998M4.29716 7.7679L12.9565 3.43823C13.6134 3.10978 14.3866 3.10978 15.0435 3.43823L23.7028 7.7679C24.1914 8.01218 24.5 8.51152 24.5 9.05774C24.5 9.85417 23.8544 10.4998 23.0579 10.4998H4.94208C4.14564 10.4998 3.5 9.85418 3.5 9.05774C3.5 8.51152 3.80861 8.01218 4.29716 7.7679ZM5.11866 23.3332H22.8813C23.6777 23.3332 24.24 22.553 23.9881 21.7976L23.8652 21.4286C23.5476 20.4758 22.6559 19.8331 21.6516 19.8331H6.34844C5.3441 19.8331 4.45244 20.4758 4.13484 21.4286L4.01187 21.7976C3.76005 22.553 4.32235 23.3332 5.11866 23.3332Z" stroke="#A1A1AA" stroke-width="2" stroke-linecap="square"/>
</svg>
