<svg width="20" height="20" viewBox="0 0 20 20" fill="none" xmlns="http://www.w3.org/2000/svg">
<path d="M3.3335 5.41671V14.1667C3.3335 15.5475 4.45279 16.6667 5.8335 16.6667H14.1668C15.5476 16.6667 16.6668 15.5475 16.6668 14.1667V10C16.6668 8.61929 15.5476 7.50004 14.1668 7.50004H13.3335M3.3335 5.41671C3.3335 6.5673 4.26624 7.50004 5.41683 7.50004H13.3335M3.3335 5.41671C3.3335 4.26612 4.26624 3.33337 5.41683 3.33337H11.6668C12.5873 3.33337 13.3335 4.07957 13.3335 5.00004V7.50004" stroke="#A1A1AA" stroke-width="1.6" stroke-linecap="square" stroke-linejoin="round"/>
<path d="M12.9167 12.8125C13.3193 12.8125 13.6458 12.486 13.6458 12.0833C13.6458 11.6806 13.3193 11.3541 12.9167 11.3541C12.514 11.3541 12.1875 11.6806 12.1875 12.0833C12.1875 12.486 12.514 12.8125 12.9167 12.8125Z" fill="#A1A1AA" stroke="#A1A1AA" stroke-width="0.625"/>
</svg>
